<svg width="12" height="10" viewBox="0 0 12 10" fill="none" xmlns="http://www.w3.org/2000/svg">
<path d="M2.04011 5.09289C1.64959 4.70237 1.01643 4.70237 0.625901 5.09289C0.235377 5.48342 0.235377 6.11658 0.625901 6.50711L2.04011 5.09289ZM4.53301 9L3.8259 9.70711C4.03493 9.91614 4.32574 10.022 4.62023 9.99619C4.91472 9.9704 5.18271 9.81564 5.35224 9.57346L4.53301 9ZM10.9522 1.57346C11.269 1.12101 11.1589 0.497483 10.7065 0.180768C10.254 -0.135946 9.63049 -0.0259117 9.31378 0.426538L10.9522 1.57346ZM0.625901 6.50711L3.8259 9.70711L5.24012 8.29289L2.04011 5.09289L0.625901 6.50711ZM5.35224 9.57346L10.9522 1.57346L9.31378 0.426538L3.71378 8.42654L5.35224 9.57346Z" fill="#F2F7FC"/>
</svg>
